PathFileType	3	(X/Y/Z)	random_1__view2_aligned.trc
DataRate	CameraRate	NumFrames	NumMarkers	Units	OrigDataRate	OrigDataStartFrame	OrigNumFrames
100.0	100.0	17	19	mm	100.0	108	1930
Frame#	Time	pelvis			neck			head			hip_left			hip_right			knee_left			knee_right			ankle_left			ankle_right			heel_left			heel_right			toe_left			toe_right			shoulder_left			shoulder_right			elbow_left			elbow_right			wrist_left			wrist_right			
		X1	Y1	Z1	X2	Y2	Z2	X3	Y3	Z3	X4	Y4	Z4	X5	Y5	Z5	X6	Y6	Z6	X7	Y7	Z7	X8	Y8	Z8	X9	Y9	Z9	X10	Y10	Z10	X11	Y11	Z11	X12	Y12	Z12	X13	Y13	Z13	X14	Y14	Z14	X15	Y15	Z15	X16	Y16	Z16	X17	Y17	Z17	X18	Y18	Z18	X19	Y19	Z19	
108	1.07000	6.030527	965.302417	-0.353505	-35.873800	1522.335727	-22.523471	-47.813230	1666.454445	-120.253872	-67.235383	961.164792	-15.696379	79.296675	969.440082	14.989411	-73.964475	527.738986	-18.408394	120.864389	541.945934	-40.650429	-96.443783	131.890138	81.456164	97.621328	151.554911	76.398700	-104.762707	86.706850	119.005066	84.203498	108.367970	114.605974	-45.176121	65.526396	-92.515875	138.471377	75.605915	-94.960874	-202.331549	1456.934584	-29.406297	132.190721	1476.002512	37.371510	-254.154888	1176.909728	-3.496687	219.442510	1208.825013	62.184796	-261.976597	900.472233	-71.753895	319.150880	912.517896	23.847667
109	1.08000	6.777021	964.790062	0.566276	-34.326901	1521.864249	-21.648135	-45.689640	1665.525158	-119.846873	-66.547645	960.646378	-14.851584	80.101925	968.933773	15.984178	-73.835165	527.520732	-18.103887	120.786171	541.501457	-38.242740	-96.943241	131.893663	81.085846	97.780298	150.917791	76.794418	-105.372586	86.731197	118.590115	84.389824	107.582681	114.812372	-45.506527	65.417998	-92.765009	138.733005	75.633873	-94.820847	-201.048665	1457.042525	-28.572657	133.818902	1475.391209	38.314631	-254.452325	1177.788219	-5.086300	221.535778	1208.540878	62.954741	-262.275937	907.338409	-78.668539	317.107476	920.257117	19.037425
110	1.09000	7.523516	964.277706	1.486056	-32.780001	1521.392771	-20.772800	-43.566050	1664.595872	-119.439873	-65.859906	960.127964	-14.006790	80.907174	968.427465	16.978945	-73.705855	527.302479	-17.799379	120.707953	541.056980	-35.835051	-97.442700	131.897188	80.715527	97.939269	150.280671	77.190137	-105.982465	86.755543	118.175164	84.576149	106.797392	115.018769	-45.836933	65.309601	-93.014144	138.994634	75.661831	-94.680820	-199.765781	1457.150466	-27.739018	135.447082	1474.779905	39.257752	-254.749762	1178.666709	-6.675913	223.629045	1208.256744	63.724686	-262.575278	914.204585	-85.583182	315.064072	927.996338	14.227183
111	1.10000	8.270011	963.765351	2.405837	-31.233102	1520.921293	-19.897465	-41.442460	1663.666586	-119.032874	-65.172167	959.609550	-13.161995	81.712424	967.921156	17.973712	-73.576545	527.084226	-17.494871	120.629735	540.612503	-33.427362	-97.942158	131.900713	80.345209	98.098239	149.643550	77.585856	-106.592344	86.779889	117.760213	84.762475	106.012103	115.225167	-46.167339	65.201204	-93.263278	139.256262	75.689789	-94.540793	-198.482897	1457.258407	-26.905379	137.075262	1474.168602	40.200872	-255.047199	1179.545200	-8.265526	225.722313	1207.972609	64.494631	-262.874618	921.070761	-92.497826	313.020668	935.735558	9.416941
112	1.11000	9.016505	963.252995	3.325618	-29.686202	1520.449815	-19.022130	-39.318871	1662.737299	-118.625875	-64.484428	959.091136	-12.317200	82.517674	967.414847	18.968479	-73.447235	526.865973	-17.190363	120.551517	540.168026	-31.019673	-98.441616	131.904238	79.974891	98.257210	149.006430	77.981575	-107.202223	86.804235	117.345263	84.948801	105.226814	115.431565	-46.497745	65.092806	-93.512413	139.517890	75.717747	-94.400766	-197.200013	1457.366347	-26.071740	138.703443	1473.557299	41.143993	-255.344637	1180.423691	-9.855138	227.815580	1207.688474	65.264576	-263.173959	927.936938	-99.412470	310.977264	943.474779	4.606698
113	1.12000	9.763000	962.740639	4.245399	-28.139302	1519.978337	-18.146794	-37.195281	1661.808013	-118.218876	-63.796690	958.572721	-11.472406	83.322923	966.908538	19.963246	-73.317925	526.647720	-16.885856	120.473299	539.723549	-28.611984	-98.941074	131.907763	79.604572	98.416180	148.369310	78.377294	-107.812102	86.828581	116.930312	85.135127	104.441525	115.637963	-46.828151	64.984409	-93.761547	139.779519	75.745704	-94.260739	-195.917129	1457.474288	-25.238101	140.331623	1472.945995	42.087114	-255.642074	1181.302182	-11.444751	229.908848	1207.404340	66.034521	-263.473299	934.803114	-106.327114	308.933860	951.214000	-0.203544
114	1.13000	10.509495	962.228284	5.165180	-26.592403	1519.506859	-17.271459	-35.071691	1660.878726	-117.811877	-63.108951	958.054307	-10.627611	84.128173	966.402230	20.958013	-73.188615	526.429467	-16.581348	120.395081	539.279071	-26.204296	-99.440532	131.911288	79.234254	98.575151	147.732189	78.773013	-108.421981	86.852927	116.515361	85.321453	103.656237	115.844361	-47.158557	64.876012	-94.010682	140.041147	75.773662	-94.120712	-194.634245	1457.582229	-24.404462	141.959803	1472.334692	43.030235	-255.939511	1182.180673	-13.034364	232.002115	1207.120205	66.804465	-263.772639	941.669290	-113.241758	306.890456	958.953221	-5.013786
115	1.14000	11.255989	961.715928	6.084961	-25.045503	1519.035381	-16.396124	-32.948101	1659.949440	-117.404878	-62.421212	957.535893	-9.782816	84.933422	965.895921	21.952780	-73.059305	526.211214	-16.276840	120.316862	538.834594	-23.796607	-99.939991	131.914813	78.863936	98.734121	147.095069	79.168732	-109.031860	86.877273	116.100410	85.507778	102.870948	116.050759	-47.488963	64.767614	-94.259816	140.302775	75.801620	-93.980685	-193.351361	1457.690169	-23.570823	143.587984	1471.723388	43.973356	-256.236948	1183.059164	-14.623977	234.095383	1206.836071	67.574410	-264.071980	948.535466	-120.156402	304.847052	966.692441	-9.824028
116	1.15000	12.002484	961.203573	7.004742	-23.498604	1518.563903	-15.520789	-30.824512	1659.020154	-116.997879	-61.733474	957.017479	-8.938021	85.738672	965.389612	22.947547	-72.929995	525.992960	-15.972332	120.238644	538.390117	-21.388918	-100.439449	131.918338	78.493617	98.893092	146.457949	79.564451	-109.641739	86.901620	115.685459	85.694104	102.085659	116.257156	-47.819370	64.659217	-94.508951	140.564404	75.829578	-93.840657	-192.068477	1457.798110	-22.737184	145.216164	1471.112085	44.916477	-256.534385	1183.937655	-16.213590	236.188650	1206.551936	68.344355	-264.371320	955.401642	-127.071045	302.803648	974.431662	-14.634271
117	1.16000	12.748979	960.691217	7.924523	-21.951704	1518.092425	-14.645454	-28.700922	1658.090867	-116.590879	-61.045735	956.499064	-8.093227	86.543922	964.883304	23.942314	-72.800685	525.774707	-15.667825	120.160426	537.945640	-18.981229	-100.938907	131.921863	78.123299	99.052062	145.820828	79.960169	-110.251617	86.925966	115.270508	85.880430	101.300370	116.463554	-48.149776	64.550820	-94.758085	140.826032	75.857536	-93.700630	-190.785592	1457.906051	-21.903544	146.844344	1470.500782	45.859598	-256.831822	1184.816146	-17.803203	238.281918	1206.267801	69.114300	-264.670660	962.267819	-133.985689	300.760244	982.170883	-19.444513
118	1.17000	13.495473	960.178862	8.844304	-20.404805	1517.620947	-13.770118	-26.577332	1657.161581	-116.183880	-60.357996	955.980650	-7.248432	87.349171	964.376995	24.937081	-72.671375	525.556454	-15.363317	120.082208	537.501163	-16.573540	-101.438365	131.925388	77.752981	99.211033	145.183708	80.355888	-110.861496	86.950312	114.855557	86.066756	100.515081	116.669952	-48.480182	64.442422	-95.007220	141.087660	75.885493	-93.560603	-189.502708	1458.013991	-21.069905	148.472525	1469.889478	46.802719	-257.129260	1185.694637	-19.392815	240.375185	1205.983667	69.884245	-264.970001	969.133995	-140.900333	298.716840	989.910104	-24.254755
119	1.18000	14.292391	959.739688	9.713045	-18.753392	1517.187014	-12.801685	-24.462675	1656.427784	-115.503572	-59.617834	955.552492	-6.410531	88.202798	963.926809	25.836655	-72.442771	525.389335	-15.049528	120.244719	537.116339	-14.596483	-101.721934	131.933635	77.486950	99.606012	144.648897	80.713190	-111.219981	86.974688	114.553156	86.492900	99.863126	116.879209	-48.718027	64.353010	-95.202109	141.527130	75.868098	-93.414336	-188.075376	1458.192711	-20.113603	150.223625	1469.204574	47.599803	-256.807565	1186.536681	-20.856186	242.099166	1205.489290	69.990303	-263.922899	975.343311	-146.529736	296.542854	996.456339	-28.685171
120	1.19000	15.089309	959.300514	10.581787	-17.101979	1516.753082	-11.833252	-22.348018	1655.693988	-114.823264	-58.877673	955.124334	-5.572630	89.056425	963.476623	26.736229	-72.214168	525.222215	-14.735740	120.407231	536.731515	-12.619426	-102.005504	131.941883	77.220918	100.000992	144.114086	81.070491	-111.578465	86.999065	114.250754	86.919044	99.211172	117.088467	-48.955872	64.263598	-95.396997	141.966601	75.850703	-93.268069	-186.648043	1458.371431	-19.157300	151.974725	1468.519670	48.396887	-256.485870	1187.378726	-22.319556	243.823146	1204.994913	70.096360	-262.875796	981.552628	-152.159140	294.368869	1003.002575	-33.115587
121	1.20000	15.886226	958.861340	11.450528	-15.450566	1516.319149	-10.864819	-20.233361	1654.960191	-114.142955	-58.137511	954.696176	-4.734729	89.910051	963.026438	27.635804	-71.985564	525.055095	-14.421951	120.569742	536.346692	-10.642369	-102.289073	131.950130	76.954887	100.395972	143.579276	81.427792	-111.936949	87.023441	113.948352	87.345189	98.559217	117.297724	-49.193717	64.174186	-95.591886	142.406071	75.833307	-93.121802	-185.220710	1458.550151	-18.200997	153.725825	1467.834765	49.193972	-256.164175	1188.220771	-23.782927	245.547126	1204.500536	70.202418	-261.828694	987.761944	-157.788543	292.194883	1009.548811	-37.546003
122	1.21000	16.683144	958.422166	12.319270	-13.799153	1515.885217	-9.896386	-18.118704	1654.226395	-113.462647	-57.397349	954.268018	-3.896829	90.763678	962.576252	28.535378	-71.756960	524.887976	-14.108163	120.732254	535.961868	-8.665312	-102.572642	131.958378	76.688856	100.790951	143.044465	81.785094	-112.295433	87.047818	113.645951	87.771333	97.907263	117.506981	-49.431562	64.084775	-95.786774	142.845541	75.815912	-92.975534	-183.793378	1458.728871	-17.244694	155.476925	1467.149861	49.991056	-255.842480	1189.062816	-25.246297	247.271106	1204.006159	70.308476	-260.781592	993.971261	-163.417946	290.020898	1016.095046	-41.976419
123	1.22000	17.480061	957.982992	13.188011	-12.147740	1515.451284	-8.927953	-16.004047	1653.492598	-112.782339	-56.657187	953.839860	-3.058928	91.617305	962.126066	29.434952	-71.528357	524.720856	-13.794374	120.894765	535.577044	-6.688255	-102.856212	131.966625	76.422825	101.185931	142.509654	82.142395	-112.653917	87.072194	113.343549	88.197477	97.255309	117.716239	-49.669407	63.995363	-95.981663	143.285011	75.798516	-92.829267	-182.366045	1458.907591	-16.288391	157.228025	1466.464957	50.788140	-255.520785	1189.904860	-26.709668	248.995087	1203.511782	70.414534	-259.734489	1000.180577	-169.047350	287.846912	1022.641282	-46.406834
124	1.23000	18.276979	957.543819	14.056753	-10.496327	1515.017352	-7.959520	-13.889390	1652.758802	-112.102031	-55.917026	953.411702	-2.221027	92.470932	961.675880	30.334526	-71.299753	524.553737	-13.480586	121.057277	535.192221	-4.711197	-103.139781	131.974873	76.156794	101.580910	141.974844	82.499697	-113.012401	87.096571	113.041148	88.623621	96.603354	117.925496	-49.907252	63.905951	-96.176552	143.724481	75.781121	-92.683000	-180.938712	1459.086311	-15.332088	158.979125	1465.780052	51.585225	-255.199090	1190.746905	-28.173038	250.719067	1203.017405	70.520591	-258.687387	1006.389893	-174.676753	285.672926	1029.187518	-50.837250
